<?xml version="1.0" encoding="UTF-8"?>
<svg xmlns="http://www.w3.org/2000/svg" version="1.1" viewBox="0 0 418 212">
  <!-- Generator: Adobe Illustrator 28.7.2, SVG Export Plug-In . SVG Version: 1.2.0 Build 154)  -->
  <g>
    <g id="Layer_1">
      <g>
        <path d="M131.8,14.8H34.2c-6.9,0-12.5,5.7-12.5,12.6s5.6,12.5,12.5,12.6h55.3c4.8,0,8.7,4,8.7,8.8s-.5,3.4-1.4,4.8c0,0-78.7,123.6-78.7,123.6-.3.4-.8,1.2-.8,1.2-.8,1.3-1.7,3.7-1.7,6.2,0,6.9,5.5,12.5,12.3,12.6h0s103.9,0,103.9,0h0c6.9-.1,12.4-5.7,12.4-12.6s-5.5-12.5-12.4-12.6h-.2s-61.1,0-61.1,0c-4.9,0-8.8-3.9-8.8-8.8s.3-3,1-4.1l79.8-125.2h0c1.2-1.9,1.9-4.2,1.9-6.6,0-7-5.6-12.6-12.6-12.6"/>
        <path d="M263.8,14.8h-97.4c-6.9,0-12.6,5.6-12.6,12.6s5.6,12.6,12.6,12.6h22c6.9,0,12.6,5.6,12.6,12.6v130.5h0c0,7.9,6.3,14.2,14.1,14.2s14.1-6.3,14.1-14.1V52.5c0-6.9,5.6-12.6,12.6-12.6h21.9c7,0,12.6-5.6,12.6-12.6s-5.6-12.6-12.6-12.6"/>
        <path d="M380.4,172c-.1,0-53.7,0-53.7,0-6.9,0-12.5-5.6-12.6-12.5v-28.5c0-7,5.6-12.6,12.6-12.6h44.5c7,0,12.6-5.6,12.6-12.6s-5.6-12.6-12.6-12.6h-44.6c-6.9,0-12.5-5.7-12.5-12.6v-28.4c.1-6.9,5.7-12.4,12.6-12.4h53.9c6.9,0,12.5-5.7,12.5-12.6s-5.6-12.5-12.5-12.6h-82.2c-6.9,0-12.6,5.6-12.6,12.6s0,.4,0,.5c0,0,0,156.6,0,156.7,0,6.9,5.6,12.5,12.5,12.6h82.3c6.9,0,12.4-5.7,12.4-12.6s-5.6-12.6-12.6-12.6"/>
      </g>
    </g>
  </g>
</svg>