<?xml version="1.0" encoding="UTF-8"?>
<svg xmlns="http://www.w3.org/2000/svg" version="1.1" viewBox="0 0 522 480">
  <defs>
    <style>
      .cls-1 {
        fill: #231f20;
        fill-rule: evenodd;
      }
    </style>
  </defs>
  <!-- Generator: Adobe Illustrator 28.7.2, SVG Export Plug-In . SVG Version: 1.2.0 Build 154)  -->
  <g>
    <g id="Layer_1">
      <g>
        <path class="cls-1" d="M109.3,462.3v-41.5c0-22.8-30.4-34.9-46.2-16.1-15.1-17.3-46.5-10.2-46.5,19.4v38.3h12.7v-42.2c0-7.3,7.2-12.7,13.4-12.7s13.8,4.9,13.8,12.9v42h12.9v-40.6c0-7.5,4.5-14.2,13.5-14.2s13.8,6.4,13.8,14.3v40.6h12.6ZM152.1,407.9c11.5,0,20.8,9.7,20.8,21.4s-9.8,20.9-21.2,20.9-21-9.5-21-21,9.6-21.2,21.4-21.2h0ZM152.2,395.1c-18.9,0-34.2,15.2-34.2,34s15.3,33.8,33.9,33.8,33.8-15.3,33.8-33.6-14.9-34.3-33.5-34.3h0ZM261.9,407.9c11.5,0,20.8,9.7,20.8,21.4s-9.8,20.9-21.2,20.9-21-9.5-21-21,9.6-21.2,21.4-21.2h0ZM261.9,395.1c-18.9,0-34.2,15.2-34.2,34s15.3,33.8,33.9,33.8,33.8-15.3,33.8-33.6-14.9-34.3-33.5-34.3h0ZM375,407.9c11.5,0,20.8,9.7,20.8,21.4s-9.8,20.9-21.2,20.9-21-9.5-21-21,9.6-21.2,21.4-21.2h0ZM375.1,395.1c-18.9,0-34.2,15.2-34.2,34s15.3,33.8,33.9,33.8,33.8-15.3,33.8-33.6-14.9-34.3-33.5-34.3h0ZM472.3,407.9c11.5,0,20.8,9.7,20.8,21.4s-9.8,20.9-21.2,20.9-21-9.5-21-21,9.6-21.2,21.4-21.2h0ZM493.7,454.9v7.4h12.1v-32.9c0-19.1-14.9-34.3-33.5-34.3s-34.2,15.2-34.2,34,15.3,33.8,33.9,33.8,15.7-3.1,21.7-8.1h0ZM206.8,408.1h16.3v-12.9h-16.3v-16.7h-12.7v55.8c0,21.2,14.8,28.7,29.3,28.7v-12.6c-8.2,0-14.7-3.1-16.3-10.9-.3-2.2-.3-2.6-.3-6.8v-24.7h0ZM430.2,462.3v-83.9h-12.9v83.9h12.9ZM316.7,462.3h-12.7v-38.5c0-22.4,17.2-30.1,32.2-28.4v12.5c-13.2-1.5-19.6,5.4-19.6,13.7v40.6h0Z"/>
        <path class="cls-1" d="M213.3,67.9c-.2,0-.3,0-.5,0-20.9,68.5-41.9,137-62.9,205.7h11.6c.2-.8.4-1.6.6-2.3,4-15.6,8.6-31.1,15.5-45.7,3.9-8.3,8.5-16.2,15.7-22.2,7.9-6.5,16.9-9.4,27-7.1,7.1,1.6,12.3,6.4,17.1,11.6,8.6,9.2,13.9,20.3,19.2,31.5,1.5,3.3,3,6.5,4.6,10,2.9-6.1,5.6-12,8.4-17.8,5.1-10.7,11.4-20.6,20.3-28.5,4.8-4.3,10.2-7.2,16.8-7.5,11.2-.6,20,4.1,27.2,12.2,7.1,8,11.7,17.6,15.2,27.6,4.2,11.9,7.6,24,11.4,36.1.3.9,1,2.2,1.7,2.2,3.4.2,6.8.1,10.6.1-21-68.8-42-137.3-62.9-205.8-.2,0-.4,0-.6,0-15.9,53.6-31.8,107.3-47.7,160.9-.2,0-.5,0-.7,0-15.9-53.7-31.8-107.3-47.7-161h0ZM270.8,25.7c5.4.7,10.8,1.2,16.2,2,37.4,5.9,69.2,22.7,95.1,50.2,25,26.6,39.7,58.3,43.7,94.6,7.2,66.2-24.1,128.1-81.6,161.8-22,12.9-45.8,20-71.3,21.7-.9,0-1.8.3-2.6.4h-18.3c-.7-.1-1.4-.4-2.1-.4-17.9-1.2-35.2-5.3-51.8-12.1-69-28.4-110.7-100.1-100.9-174.1,4.6-34.8,18.7-65.3,42.5-91,26-28,58-45.1,95.8-51.2,5.5-.9,11-1.4,16.5-2.1h18.8Z"/>
      </g>
    </g>
  </g>
</svg>