<?xml version="1.0" encoding="UTF-8"?>
<svg xmlns="http://www.w3.org/2000/svg" version="1.1" viewBox="0 0 500 500">
  <!-- Generator: Adobe Illustrator 28.7.2, SVG Export Plug-In . SVG Version: 1.2.0 Build 154)  -->
  <g>
    <g id="Layer_1">
      <path d="M93.3,212.2h13.4v75.5h-13.4v-31.4h-29.9v31.4h-13.4v-75.5h13.4v30.6h29.9v-30.6ZM263.9,259.1l-32.6-47.1h-10.7v75.5h13.4v-47.3l32.8,47.3h10.6v-75.5h-13.4v47.1ZM419.5,247.9h-15v-22.2h15c6.1,0,11.1,5,11.1,11.1s-5,11.1-11.1,11.1M427.1,260.2c9.9-3.2,17.1-12.4,17.1-23.4s-11-24.5-24.5-24.6h0s-28.6,0-28.6,0v75.5h13.4v-33.6l28,33.6h17.5l-22.9-27.5ZM334.2,275.2c-14,0-25.3-11.3-25.3-25.3s11.3-25.3,25.3-25.3,25.3,11.3,25.3,25.3-11.3,25.3-25.3,25.3M334.2,211.2c-21.4,0-38.7,17.3-38.7,38.7s17.3,38.7,38.7,38.7,38.7-17.3,38.7-38.7-17.3-38.7-38.7-38.7M163.6,275.2c-14,0-25.3-11.3-25.3-25.3s11.3-25.3,25.3-25.3,25.3,11.3,25.3,25.3-11.3,25.3-25.3,25.3M163.6,211.2c-21.4,0-38.7,17.3-38.7,38.7s17.3,38.7,38.7,38.7,38.7-17.3,38.7-38.7-17.3-38.7-38.7-38.7"/>
    </g>
  </g>
</svg>