<?xml version="1.0" encoding="UTF-8"?>
<svg xmlns="http://www.w3.org/2000/svg" version="1.1" viewBox="0 0 365 98">
  <defs>
    <style>
      .cls-1 {
        fill-rule: evenodd;
      }
    </style>
  </defs>
  <!-- Generator: Adobe Illustrator 28.7.2, SVG Export Plug-In . SVG Version: 1.2.0 Build 154)  -->
  <g>
    <g id="Layer_1">
      <polyline class="cls-1" points="259.3 20.3 211.3 20.3 211.3 80.7 228.8 80.7 228.8 28.5 248.6 28.5 250.9 28.7 253 29.5 254.7 30.8 256.1 32.4 257 34.3 257.3 36.3 257.3 80.7 274.8 80.7 274.8 34.5 274.6 32.4 274.1 30.4 273.3 28.5 272.3 26.8 271 25.2 269.4 23.8 267.7 22.6 265.8 21.7 263.7 20.9 261.6 20.5 259.3 20.3"/>
      <polyline class="cls-1" points="330.5 20.3 298 20.3 295.7 20.5 293.6 20.9 291.5 21.7 289.6 22.6 287.9 23.8 286.4 25.2 285 26.8 284 28.5 283.2 30.4 282.7 32.4 282.5 34.5 282.5 66.5 282.7 68.6 283.2 70.6 284 72.5 285 74.2 286.4 75.8 287.9 77.2 289.6 78.4 291.5 79.4 293.6 80.1 295.7 80.5 298 80.7 330.5 80.7 332.8 80.5 335 80.1 337 79.4 338.9 78.4 340.7 77.2 342.2 75.8 343.5 74.2 344.5 72.5 308.7 72.5 306.4 72.3 304.3 71.5 302.6 70.2 301.2 68.6 300.4 66.8 300 64.7 300 36.3 300.4 34.3 301.2 32.4 302.6 30.8 304.3 29.5 306.4 28.7 308.7 28.5 344.5 28.5 343.5 26.8 342.2 25.2 340.7 23.8 338.9 22.6 337 21.7 335 20.9 332.8 20.5 330.5 20.3"/>
      <polyline class="cls-1" points="344.5 28.5 319.9 28.5 322.2 28.7 324.2 29.5 326 30.8 327.3 32.4 328.2 34.3 328.5 36.3 328.5 64.7 328.2 66.8 327.3 68.6 326 70.2 324.2 71.5 322.2 72.3 319.9 72.5 344.5 72.5 344.6 72.5 345.3 70.6 345.8 68.6 346 66.5 346 34.5 345.8 32.4 345.3 30.4 344.6 28.5 344.5 28.5"/>
      <polyline class="cls-1" points="141.7 19.6 103.2 19.6 100.9 19.8 98.8 20.2 96.7 20.9 94.8 21.9 93.1 23.1 91.6 24.5 90.3 26.1 89.2 27.8 88.4 29.7 87.9 31.7 87.8 33.8 87.8 65.8 87.9 67.9 88.4 69.9 89.2 71.8 90.3 73.5 91.6 75.1 93.1 76.5 94.8 77.7 96.7 78.6 98.8 79.4 100.9 79.8 103.2 80 141.7 80 141.7 71.8 113.9 71.8 111.6 71.5 109.5 70.7 107.8 69.5 106.4 67.9 105.6 66 105.2 63.9 105.2 53.2 141.7 53.2 141.7 45.1 113.9 45.1 111.6 44.8 109.5 44 107.8 42.7 106.4 41.1 105.6 39.3 105.2 37.2 105.2 35.6 105.6 33.5 106.4 31.7 107.8 30.1 109.5 28.8 111.6 28 113.9 27.7 141.7 27.7 141.7 19.6"/>
      <polyline class="cls-1" points="203.5 19.6 165 19.6 162.7 19.8 160.5 20.2 158.5 20.9 156.6 21.9 154.9 23.1 153.3 24.5 152 26.1 151 27.8 150.2 29.7 149.7 31.7 149.5 33.8 149.5 65.8 149.7 67.9 150.2 69.9 151 71.8 152 73.5 153.3 75.1 154.9 76.5 156.6 77.7 158.5 78.6 160.5 79.4 162.7 79.8 165 80 203.5 80 203.5 71.8 175.6 71.8 173.4 71.5 171.3 70.7 169.6 69.5 168.2 67.9 167.3 66 167 63.9 167 35.6 167.3 33.5 168.2 31.7 169.6 30.1 171.3 28.8 173.4 28 175.6 27.7 203.5 27.7 203.5 19.6"/>
      <polyline class="cls-1" points="80 19.6 16.5 19.6 16.5 27.7 39.5 27.7 39.5 80 57 80 57 35.6 57.3 33.5 58.2 31.7 59.5 30.1 61.3 28.8 63.3 28 65.6 27.7 80 27.7 80 19.6"/>
    </g>
  </g>
</svg>