<?xml version="1.0" encoding="UTF-8"?>
<svg xmlns="http://www.w3.org/2000/svg" version="1.1" viewBox="0 0 292 275">
  <!-- Generator: Adobe Illustrator 28.7.2, SVG Export Plug-In . SVG Version: 1.2.0 Build 154)  -->
  <g>
    <g id="Layer_1">
      <g>
        <g>
          <polygon points="31.5 198.2 31.5 198.2 31.5 198.2 31.5 198.2"/>
          <path d="M234.7,145c-6.4-6.7-15.8-13.2-28.2-19.5,41.2-18.4,30.9-43.2-18.5-62.5l-18.2,6c-20.9,6.9-43.5,6.9-64.4,0l-18-5.9-55.8,25.7s36.5,14.3,51.6,24.8v69.9c-11.3,7.8-32,14.7-51.6,14.7h124.6s34.8-.2,50.4-3.9c12.3-3.5,21.7-7.9,28.2-13.2,6.3-5.1,9.4-10.8,9.4-17,0-6.2-3.1-12.6-9.4-19.2ZM137.8,88.8c17.2,0,34.5,10.5,34.5,20.8s-20.2,21-34.5,21v-41.8ZM137.8,189v-43.6c17.8,0,44.8,8.9,44.5,24.1-.6,14.2-12.8,19.5-44.5,19.5Z"/>
        </g>
        <path d="M154.9,48.4h0l-1.8-9.9h5.4c3-.1,5.3-3.3,5.3-6h-10.6l2.7-2.7h8.8c2.1.3,3.1,1.9,3.3,4.6v-11.1h.1c0-2.2-1.8-5.3-5.3-5.4,0,0,0,0,0,0h-5.5c0-2.2-1.9-5.4-5.4-5.4s-.2,0-.4,0h-32.7c0,2.2,1.6,4.8,4.4,5.3l-2.5,30.5c-3,8.7-14.8,11.4-23.4,8,9.8,7.9,27.7,10.8,40.5,5.7,12.8,5.1,30.6,2.3,40.5-5.7-8.6,3.4-20.4.7-23.4-8ZM146.3,25c-2.6,0-4-2.4-4-4h8c0,2-2,4-4,4Z"/>
        <g>
          <path d="M39.2,243.4c.9.2,1.8.6,2.7,1.1.9.5,1.7,1.1,2.4,1.9.7.8,1.3,1.6,1.7,2.6.4,1,.6,2.1.6,3.3,0,2.1-.4,3.9-1.3,5.4-.9,1.5-2,2.6-3.4,3.5-1.4.9-3,1.6-4.9,1.9-1.8.4-3.7.6-5.6.6H13.5v-39.2h16.1c1.6,0,3.3.1,5.1.4,1.8.2,3.4.7,5,1.4,1.5.7,2.8,1.8,3.8,3.2,1,1.4,1.5,3.2,1.5,5.5s-.5,3.8-1.6,5.2c-1.1,1.4-2.4,2.4-4.2,3v.2ZM25.8,234.8v4.8h3.5c.9,0,1.7-.2,2.3-.6.6-.4.9-1.1.9-2s-.3-1.3-.9-1.7c-.6-.4-1.5-.6-2.5-.6h-3.3ZM25.8,248.1v5.3h3.9c1,0,1.9-.2,2.5-.7.6-.5,1-1.1,1-2s-.1-.9-.4-1.3c-.3-.3-.6-.6-1-.8-.4-.2-.8-.3-1.3-.4-.5,0-.9-.1-1.3-.1h-3.4Z"/>
          <path d="M63.3,224.5h14l15.3,39.2h-14.3l-2-5.8h-12.5l-1.9,5.8h-13.9l15.4-39.2ZM70.1,238.2l-3.2,9.7h6.4l-3.2-9.7Z"/>
          <path d="M89.7,224.5h14.9l6.5,24.2h.2l6.2-24.2h14.9l-14.2,39.2h-14.6l-13.9-39.2Z"/>
          <path d="M145,224.5h14l15.3,39.2h-14.3l-2-5.8h-12.5l-1.9,5.8h-13.9l15.4-39.2ZM151.8,238.2l-3.2,9.7h6.4l-3.2-9.7Z"/>
          <path d="M177.6,224.5h16.9c1.9,0,3.8.2,5.7.6,1.9.4,3.6,1.1,5.1,2,1.5,1,2.7,2.3,3.6,3.9.9,1.6,1.4,3.7,1.4,6.2s-.6,4.5-1.8,6.3c-1.2,1.8-2.9,3.2-5.1,4.2l9.9,15.9h-15.1l-7.5-14h-.4v14h-12.8v-39.2ZM190.3,241.1h2.6c.4,0,.9,0,1.5-.1.5,0,1-.2,1.5-.5.5-.2.8-.6,1.2-1,.3-.4.5-1,.5-1.7s-.1-1.3-.4-1.7c-.3-.4-.6-.7-1-.9s-.8-.3-1.3-.4-.9,0-1.3,0h-3.1v6.3Z"/>
          <path d="M217.7,224.5h13.3v39.2h-13.3v-39.2Z"/>
          <path d="M249.7,224.5h14l15.3,39.2h-14.3l-2-5.8h-12.5l-1.9,5.8h-13.9l15.4-39.2ZM256.5,238.2l-3.2,9.7h6.4l-3.2-9.7Z"/>
        </g>
      </g>
    </g>
  </g>
</svg>