<?xml version="1.0" encoding="UTF-8"?>
<svg xmlns="http://www.w3.org/2000/svg" version="1.1" viewBox="0 0 677 284">
  <!-- Generator: Adobe Illustrator 28.7.3, SVG Export Plug-In . SVG Version: 1.2.0 Build 164)  -->
  <g>
    <g id="Layer_1">
      <polygon points="353 99.6 333.3 99.6 322.2 117.6 341.9 117.6 353 99.6"/>
      <path d="M295.6,253.4c-15.7-11-34.8-15.9-52.1-15.2-17.5.7-25.4,13.8-25.4,13.8-7.9-13.8-23.6-22.3-47.8-22.1-39.1.5-77.8,18.5-108.5,18.5s-50.9-18.5-50.2-51.4c1.2-57.6,49.9-109.6,86.3-133,20.9-13.4,38.4-17.4,49.9-16.1,8.4.9,18.4,10.6,12.1,24.8-9.3,20.9-22.2,19.1-21.7,9.1.3-6.5,4.6-10.5,7.8-12.8,2.1-1.4,5.7-1.8,7.6-1.9,1.8-1.6,3.2-13-11.8-9.2-15,3.8-33,18.5-50.2,37.5-17.2,19-44,55-50.6,92.7-3.1,17.5-1,49.4,40.4,49,35.1-.3,87-23.5,134.7-23.1,18.5.2,34.6,5.1,47.2,12.9,12.4,7.6,27.2,18.7,32.4,26.3M306.8,148.9h7.2s-36.1,52.2-56.5,49.9c-11.4-1.3-8-15.4-8-15.4,0,0-16,18.7-30.7,15-13.3-3.4-4.8-25.6-4.8-25.6-1.5.6-30.4,33.2-50.6,25.4-21.2-8.2-10.2-35.4-6.2-43.6,3.4-6.9,7.2-13.6,7.2-13.6,0,0-3.3.9-5.3,1.4s-5.1,1.1-5.1,1.1c0,0-10,16.3-16.2,24.4-6.1,8.1-32.2,36.1-47.5,30.5-15.4-5.6-11.6-27-2.9-44.1,14-27.7,47.2-61.7,67.1-56.6,20.2,5.1,3.5,37.9,3.5,37.9,0,0,4,.5,13.6-6,13.9-9.5,32.1-34.9,51.9-31.9,9.3,1.4,18,10.9,6.1,29.1-3.8,5.8-10.2,11-15,5.9-3-3.2-.4-9,2.8-13,4.5-5.7,10.7-4.9,10.7-4.9,0,0,3.3-7.5-5-7.4-6.7.1-23.8,15.8-33.4,31.7-8.8,14.6-22.2,39.4-8.8,44.8,12.3,5,35.7-22.9,46.6-37.4,10.9-14.6,35.5-47.6,56.3-49,7.1-.5,11.4,6,11.4,6l2.4-3.8h20.7s-39,65.2-42.1,70.2c-2.4,3.9-5.6,12.6,3.3,7.7,8.8-4.9,27.2-28.5,27.2-28.5M146.1,142.2c-.4-.1-5.6-1.6-10.7-4.9-5.1-3.3-7.4-8.1-7.6-8.4-.2-.3-.4,0-.6.2s-1.3,1.7-8.7,12.5c-7.4,10.9-18.3,33.1-8.1,36.9,6.6,2.4,17.6-9.1,23.6-16.7,5.5-7.1,12.1-18,12.4-18.6.3-.6,0-.8-.3-.9M154.3,107.6c-5.4-4.1-19.3,5.5-19.3,15.3,0,10.1,12.5,12.9,14.1,13,0,0,1.4.4,2-.8.4-.7,2.1-3.9,4-8.9s4.3-14.8-.7-18.6M259.9,161.9c8.4-11.5,31.5-51.7,31.5-51.7,0,0-.4-2.8-3.1-2.9-3.2-.1-8.5.9-19.1,14.2-10.6,13.3-18.8,23.8-24.8,34.8-6.6,12-9.4,20.4-5.7,22.7,1.1.6,2.7.7,4,.4,2.5-.6,5.7-3.1,10.1-8.2,2.1-2.4,4.4-5.6,7.1-9.3M643.5,67.3c-14.5,9.4-34.7,17.8-54.1,16-4.9,5.1-10.1,10.9-15.4,17.3,33.6,6.6,63-14.2,78.6-31.9,9.8-11.1,14.6-20.9,14.6-20.9,0,0-9.3,10.3-23.7,19.5M585.9,219.9c-2.8,4.5-5.9,13,3.3,7.7,11.2-6.5,27.2-30.7,27.2-30.7h7.2s-9.5,15-21.9,28.8c-11.4,12.6-25.2,24-35,22.9-11.4-1.3-7.8-16.3-7.8-16.3,0,0-16.4,17.4-27.6,16.1-15.2-1.7-10.6-20.5-10.6-20.5,0,0-17.2,21.2-28.9,20.5-18.4-1.1-13.8-23.5-8.7-39.2,2.7-8.4,5.3-15.1,5.3-15.1,0,0-1.8.5-5.7,1.1-2,.3-5.8.5-5.8.5,0,0-7.6,13.5-13.8,21.7-6.1,8.1-32.2,36.1-47.5,30.5-14.2-5.2-9.5-26.9-1.2-44.1,12-25.1,45.9-61.3,65.4-56.6,20.2,4.9.5,41.9.5,41.9,0,0,0,.1.2.2.4.2,1.5.3,3.9-.2,3.9-.7,7.4-2.2,7.4-2.2,0,0,20.3-42.6,42.8-70.6,22.5-27.9,67.3-76,85-64.3,4.3,2.8,2.3,12.7-3.4,24.6-2.6.8-5.2,1.5-8,2.1,3.9-7,6.5-13,7.2-17.1,2.6-14.4-31,16-55,48.7-24,32.7-38.5,62.3-38.5,62.3,0,0,4.8-2.7,12.4-8.8,7.9-6.4,18.7-16.3,30.5-28.5,7.9-8.2,17.3-18.5,26-30,2.6-.1,5.2-.4,7.7-.8-9.7,13.1-20,25.1-28.7,33.9-9.6,9.7-20,20.2-29,27.8-14.4,12.1-25.4,18.9-25.4,18.9,0,0-21.1,42.4-9.6,45.1,6.7,1.6,20-18.9,20-18.9,0,0,17.3-26.5,27.8-38.4,14.2-16.2,26.5-25.6,38.8-25.8,7.1-.1,11.4,7.5,11.4,7.5l3.4-5.2h20.7s-38.6,65.6-41.7,70.5M469.5,194.1c-.4-.1-4.8-2.2-9.5-6.1-4.6-3.9-7-8.3-7.2-8.7-.2-.3-.4,0-.6.2-.2.3-1,1-8.4,11.9-7.4,10.9-18.7,33.2-8.4,37,6.6,2.4,17.5-9.1,23.5-16.7,5.5-7.1,10.7-16.1,11-16.8.3-.6,0-.8-.3-.9M480,175.8c1.9-5,4.3-14.8-.7-18.6-5.4-4.1-19.3,5.5-19.3,15.3,0,10.1,9.8,14.6,12.1,15.3,1.3.4,1.8.3,2.5-.8.4-.7,3.6-6.2,5.5-11.2M598.8,161.9c.4-.7.6-1.4.6-1.4,0,0-.4-2.8-3.1-2.9-3.2-.1-7.6.5-19,13.1-11.4,12.6-18.3,23.6-24.3,34.5-6.6,12-9.2,20.9-5.4,23.2,1.1.6,2.7.7,4,.4,2.6-.6,5.4-3,9.8-8.1,2.1-2.4,4.3-5.8,7.1-9.5,7.5-10.3,26.5-42.8,30.3-49.3M643.5,67.3c-14.5,9.4-34.7,17.8-54.1,16-4.9,5.1-10.1,10.9-15.4,17.3,33.6,6.6,63-14.2,78.6-31.9,9.8-11.1,14.6-20.9,14.6-20.9,0,0-9.3,10.3-23.7,19.5M549.1,91.7c-15.9-8.1-27.5-18.1-39.6-24.3-11.5-5.9-19-8.4-28.3-7.1-1.5.2-3.9,1-3.9,1,0,0,4.8,16.4-14.3,43.9-19.3,27.9-36.9,27.8-41.9,20.1-5.2-8.1,1.5-24.6,12.8-39.3,11.8-15.4,32.5-28.1,32.5-28.1,0,0-6.6-4-22.8,5.2-15.8,9-43.1,30.3-68.3,66.3-25.2,36-30.3,55.8-33.9,71.4-3.6,15.6-.3,32.3,17,32.3s37.4-26.4,43-35.5c10.5-17.1,17.4-43.2,3.1-39.6-7.1,1.8-12.8,9.6-16.4,17.1-3.7,7.7-5.2,15.1-5.2,15.1,0,0-6,2.1-14,8.1-8,6-13.3,11.7-13.3,11.7,0,0,0-12.4,10-32.6,9.9-20.2,28.1-29.4,38.5-30.2,9.3-.8,21.4,7.1,11.2,36.3-10.2,29.1-40.5,64.5-72.3,65-29.3.4-48.5-37-7.8-102.3,45.1-72.3,98.2-94.4,115.4-96.9,17.2-2.5,22.8,5.1,22.8,5.1,0,0,14.4-6.7,32.7-5.4,21,1.4,37.3,16.3,58.7,26.7-5.6,5.4-10.9,11-15.7,16.2M470.8,63.3s-12.3,4.9-26.6,20.7c-14.3,15.8-22.6,33.5-16.4,38.2,2.4,1.8,7.8,2.1,17.7-6.8,7.7-7,15.6-16,20.9-29.1,6.4-15.6,4.4-22.8,4.4-22.9"/>
      <path d="M613.8,234.3c1.2.7,2.1,1.6,2.8,2.7.7,1.1,1,2.4,1,3.8s-.3,2.6-1,3.8c-.7,1.1-1.6,2-2.8,2.7-1.2.7-2.5,1-3.9,1s-2.8-.3-3.9-1c-1.2-.7-2.1-1.6-2.8-2.7-.7-1.1-1-2.4-1-3.8s.3-2.6,1-3.8c.7-1.2,1.6-2.1,2.8-2.7,1.2-.7,2.5-1,3.9-1s2.8.3,3.9,1M613,246.1c.9-.5,1.6-1.2,2.2-2.2.5-.9.8-1.9.8-3.1s-.3-2.2-.8-3.1c-.5-.9-1.2-1.6-2.2-2.1-.9-.5-2-.8-3.1-.8s-2.2.3-3.1.8c-.9.5-1.7,1.2-2.2,2.1-.5.9-.8,1.9-.8,3.1s.3,2.2.8,3.1c.5.9,1.2,1.6,2.1,2.2.9.5,2,.8,3.2.8s2.2-.3,3.2-.8M612.8,240.7c-.2.4-.5.6-.9.8l1.8,2.6h-2l-1.6-2.5h-1.3v2.5h-1.7v-6.8h3.9c.7,0,1.2.2,1.6.6.4.4.6.9.6,1.5s-.1.8-.3,1.2M608.8,240.2h1.9c.2,0,.4,0,.5-.2.1-.1.2-.3.2-.5s0-.4-.2-.5c-.1-.1-.3-.2-.5-.2h-1.9v1.3Z"/>
    </g>
  </g>
</svg>