<?xml version="1.0" encoding="UTF-8"?>
<svg xmlns="http://www.w3.org/2000/svg" version="1.1" viewBox="0 0 517 500">
  <defs>
    <style>
      .cls-1, .cls-2 {
        fill-rule: evenodd;
      }

      .cls-1, .cls-3 {
        fill: #1d1d1b;
      }

      .cls-4, .cls-2, .cls-5 {
        fill: #fff;
      }

      .cls-5 {
        stroke: #1e120d;
        stroke-miterlimit: 10;
      }
    </style>
  </defs>
  <!-- Generator: Adobe Illustrator 28.7.3, SVG Export Plug-In . SVG Version: 1.2.0 Build 164)  -->
  <g>
    <g id="Layer_1">
      <g>
        <ellipse class="cls-5" cx="261.3" cy="244.9" rx="200.5" ry="202.5"/>
        <path class="cls-3" d="M16.7,249.8c0,134,109,242.9,243,242.9s242.9-109,242.9-242.9S393.7,6.8,259.7,6.8,16.7,115.8,16.7,249.8M96.2,249.8c0-90.1,73.3-163.5,163.5-163.5s163.4,73.3,163.4,163.5-73.3,163.4-163.4,163.4-163.5-73.3-163.5-163.4Z"/>
        <g>
          <path class="cls-4" d="M94.3,97.6l11-10.5c6.1-5.9,13.1-8.8,19.8-1.8,6.6,6.9,3.9,13.6-2.3,19.5l-4.8,4.6,11,11.5-6.5,6.2-28.3-29.6ZM112.7,103.9l4.3-4.1c2.3-2.2,3.8-5.2,1.2-7.9-2.9-3-6.4-.5-8.9,1.9l-3.3,3.2,6.7,7Z"/>
          <path class="cls-4" d="M131.3,65.3l13.6-8.2c7.2-4.3,14.7-5.5,19.6,2.7,3,4.9,2.6,10.3-1.8,14.2l17.8,9.4-9.2,5.6-15.8-9.6-3.8,2.3,8.4,14-7.7,4.7-21.1-35ZM147.8,75.1l4.6-2.7c2.8-1.7,6.4-4,4.1-7.8-2.1-3.5-5.6-2.1-8.4-.4l-5,3,4.8,8Z"/>
          <path class="cls-4" d="M196.9,33.4c12.3-3.6,23.5,1.9,27.2,14.5,3.6,12.6-3,23.2-15.2,26.8-12.3,3.6-23.5-1.9-27.2-14.5-3.6-12.6,3-23.2,15.2-26.8ZM206.5,66.7c7.4-2.1,10.7-8.9,8.5-16.2-2.1-7.3-8.5-11.3-15.9-9.1-7.4,2.1-10.7,8.9-8.5,16.2,2.1,7.3,8.5,11.3,15.9,9.1Z"/>
          <path class="cls-4" d="M244.3,34l-11.7.6-.4-8,32.3-1.6.4,8-11.7.6,1.6,32.9-9,.4-1.6-32.9Z"/>
          <path class="cls-4" d="M281.4,26.2l27.4,4.3-1.3,8.2-18.5-2.9-1.2,7.5,17.5,2.8-1.3,8.2-17.5-2.8-1.3,8.2,19.6,3.1-1.3,8.2-28.5-4.5,6.4-40.4Z"/>
          <path class="cls-4" d="M351.2,56.4c-.8-2.7-2.8-4.8-5.9-6-6.3-2.6-13.1.6-16,7.7-2.9,7.1-.4,14.1,5.7,16.6,3.4,1.4,6.7,1,9.5-.9l4.8,8c-5,3.2-11.2,3.1-16.4.9-11.8-4.9-17.2-16.1-12.2-28.3,5-12.1,16.8-16.3,28.6-11.5,4.2,1.7,9,5.4,10.5,10.8l-8.6,2.6Z"/>
          <path class="cls-4" d="M378.9,69.2l-9.6-6.6,4.5-6.6,26.6,18.4-4.5,6.6-9.6-6.6-18.7,27.1-7.4-5.1,18.7-27.1Z"/>
          <path class="cls-4" d="M419.6,106.9c.3-2.3-1.1-5-2.6-6.6-1.8-1.8-5-3.6-7.2-1.4-5.4,5.2,11.2,15.4.9,25.3-6.6,6.3-14.8,4.1-20.6-2-3.7-3.8-5.7-8.2-5.9-13.5l9.5-.3c-.5,3,.6,6.2,2.7,8.3,2,2.1,5.3,3.5,7.4,1.5,5.4-5.2-10.8-16.2-1-25.7,6.3-6.1,14.8-3.8,20.4,2,3.2,3.3,5.4,7.4,5.6,12l-9.2.3Z"/>
        </g>
        <polyline class="cls-3" points="334.2 230.9 367.5 189.3 333.2 189.3 316.9 209.8 334.2 230.9"/>
        <path class="cls-3" d="M272.1,210.1c6.7,0,12.4,2.9,16.5,7.8,1.5,1.8,2,2.3,3.1,3.8,3.9,5.1,5.3,6.9,7.7,9.8-2.3,2.8-3.7,4.7-7.7,9.8-1.2,1.5-1.6,2-3.1,3.7-4.2,4.9-9.9,7.8-16.5,7.8-11.8,0-21.3-9.6-21.3-21.4,0-11.8,9.5-21.4,21.3-21.4"/>
        <path class="cls-3" d="M255.6,276.1c-4.2-1.1-8.1-3.3-9.4-4.1-13.4-8.4-22.4-23.1-22.4-40.5,0-26.7,21.6-48.3,48.3-48.3s26.2,5,36.7,17.2l.6.7.4-.3-52.1-90.1-95.6,165.8h93.5v-.5"/>
        <path class="cls-3" d="M289.5,276.1v.5h64.2v-.5s-1-.2-2-.3c-4.3-.6-7.7-1.7-10.1-2.7-9.7-4-17.8-11.9-24.7-20,0,0-5.1,6.7-9.7,11.7-6.8,7.5-14.2,10.5-17.7,11.4"/>
        <polyline class="cls-3" points="350.7 337.6 359.6 337.6 359.6 326.9 363 323.5 371.9 337.6 382.6 337.6 369.3 317.8 381.2 305.6 370.7 305.6 359.6 317.5 359.6 293.2 350.7 293.2 350.7 337.6"/>
        <path class="cls-1" d="M291.6,337.6v-15.3h5c10.8.2,19.2-2.8,19.2-14.7s-7.5-14.8-18.3-14.4h-15.4v44.4h9.4M298,300.9c5.3-.2,8.6,1.9,8.7,6.8,0,4.9-3.6,7-8.5,6.9h-6.6v-13.7h6.4Z"/>
        <path class="cls-1" d="M324.2,315.6s-.6-4.9,6.3-4.8c2.8,0,5.5,1.5,5.3,4-.2,1.9-1.7,2.3-4.8,2.8-5.1.6-8.6,1.4-11,2.6-3.1,1.5-5.8,4.7-5.5,8.8.4,6.1,6.7,9.7,12.9,9.4,7.2-.3,8.6-4.7,8.6-4.7,0,.7,0,.7.2,1.7.2,1.4.5,2.1.5,2.1h9.1c-.5-.4-.7-.6-1-1.2-.3-.7-.4-1.4-.4-2.1v-18.4c0-9-7.2-11.3-14.3-11.4-13.4-.2-13.4,9.3-13.7,10.9l7.8.2M329.4,332c-2.7.3-6.2-.5-6.3-3.9-.1-3.3,4.6-4.2,6.9-4.7,1.9-.4,3.7-.9,5-1.4.7-.3.9-.6.9-.6v4.4c-.2,3.3-2.4,5.8-6.6,6.2Z"/>
        <polyline class="cls-3" points="152.5 337.6 152.5 301.1 166 301.1 166 293.2 129.7 293.2 129.7 301.1 143 301.1 143 337.6 152.5 337.6"/>
        <path class="cls-1" d="M159.2,322.6c.6,11.9,10.6,16.3,16.6,16.2,13-.4,15.5-10.6,15.5-10.6l-9.1-.5s-1.4,4.1-6.5,4c-7.6,0-7.8-7.6-7.8-7.6h23.7s.9-19.1-16.7-19.4c-10-.1-16.2,8.2-15.7,17.9M182.3,317.8h-14.1s.6-6.1,6.9-6.2c6.3,0,7.2,6.2,7.2,6.2Z"/>
        <path class="cls-3" d="M216.5,337.6h8.8v-14.6c0-4,.8-7.7,4.4-9.5,1.9-.9,3.4-1,5.5-.8v-7.6c-.3-.2-1.3-.3-2.3-.3-2.9-.2-5.6,1.5-7.2,4.4-.1.3-.2.5-.5,1.1l-.3-4.6h-8.4v31.9"/>
        <path class="cls-3" d="M192.3,311.8h4.4v16.4c0,2.6.3,6,2.8,7.9,2.6,1.9,6,1.6,9.3,1.6h2.7v-6.5s-2.1,0-2.1,0c-1.4,0-2.3,0-3-.7-1.1-.9-1-2.3-1-3v-15.6h5.9v-6h-5.9v-10.1h-8.7c0,0,0,10,0,10h-4.4v6.1"/>
        <path class="cls-1" d="M245.1,315.6s-.6-4.9,6.4-4.8c2.9,0,5.5,1.5,5.3,4-.1,1.8-1.7,2.3-4.8,2.8-5.1.6-8.7,1.5-11.1,2.6-3.1,1.5-5.7,4.7-5.5,8.8.4,6.1,6.7,9.7,12.9,9.4,7.2-.3,8.6-4.7,8.6-4.7.1.7.1.7.3,1.7.2,1.4.5,2.1.5,2.1h9.1c-.5-.4-.7-.6-1-1.2-.3-.7-.4-1.4-.4-2.1v-18.4c0-9-7.2-11.3-14.4-11.5-13.4-.2-13.4,9.4-13.7,10.9l7.8.2M250.3,332c-2.7.3-6.2-.5-6.3-3.9-.1-3.3,4.6-4.2,6.9-4.7,1.9-.4,3.7-.9,5-1.4.8-.3.9-.6.9-.6v4.4c-.2,3.3-2.4,5.8-6.5,6.2Z"/>
        <path class="cls-2" d="M70.7,219.8c-.1,6.7-5.6,12.1-12.4,12-6.7-.1-12.1-5.7-11.9-12.4.1-6.8,5.6-12.1,12.4-12,6.9.1,12.1,5.7,12,12.4"/>
        <path class="cls-2" d="M448.7,219.8c.1,6.7,5.6,12.1,12.4,12,6.7-.1,12.1-5.7,11.9-12.4-.1-6.8-5.6-12.1-12.4-12-6.9.1-12.1,5.7-12,12.4"/>
        <g>
          <path class="cls-4" d="M86.7,311.4l4.7,8.6-19.9,18.3h0c0,.1,27.1-4.9,27.1-4.9l4,7.4-19.6,20.3h0c0,.1,26.9-6.7,26.9-6.7l4.4,8-41.6,9.1-3.8-7.1,20.5-21.5h0c0-.1-29.2,5.5-29.2,5.5l-3.7-6.8,30.1-30.2Z"/>
          <path class="cls-4" d="M119.2,366l6.4,6.4-10.8,10.8,12.4,12.4,10.8-10.8,6.4,6.4-28.9,28.9-6.4-6.4,12.5-12.5-12.4-12.4-12.5,12.5-6.4-6.4,28.9-28.9Z"/>
          <path class="cls-4" d="M163.3,403.8l6.4,3.8-5.9,44.2-8.7-5.2,1.5-9.2-13.6-8.2-7.4,5.7-8.5-5.1,36.2-25.9ZM160.2,415.8l-10.8,8.3,8.6,5.2,2.2-13.5Z"/>
          <path class="cls-4" d="M191.9,427.1l-11-3.9,2.7-7.5,30.5,10.9-2.7,7.5-11-3.9-11.1,31-8.5-3,11.1-31Z"/>
          <path class="cls-4" d="M225.4,444.9l-7.3-1.3,7.1-15.3,8.2,1.5-8,15.1Z"/>
          <path class="cls-4" d="M260.7,441.7c-1.4-1.9-4.2-2.9-6.4-2.9-2.5,0-6.1.9-6.2,4-.3,7.4,18.7,3.3,18.2,17.6-.3,9.1-7.8,13.2-16.2,12.9-5.3-.2-9.8-1.9-13.6-5.6l6.7-6.8c1.8,2.5,4.7,4,7.7,4.1,2.9.1,6.3-1.2,6.4-4.1.3-7.5-19-4.1-18.6-17.8.3-8.7,8-13,16.1-12.7,4.6.2,9,1.5,12.4,4.7l-6.4,6.5Z"/>
          <path class="cls-4" d="M351.8,450.2c-4.1,4.4-9.1,7.5-14.8,9.5-12,4.3-23.6-.4-28.1-12.7-4.5-12.3,1.4-23.4,13.4-27.7,6.1-2.2,12-2.8,17.1-.6l-3.6,8.7c-3.1-1.6-6.4-1.8-10.7-.2-7.2,2.6-10.1,9.5-7.5,16.7,2.6,7.2,9.2,10.7,16.4,8,3.7-1.3,6-3.3,7.3-4.8l-2.3-6.2-6.9,2.5-2.8-7.8,15-5.5,7.3,20.1Z"/>
          <path class="cls-4" d="M360.9,399.3c10.5-7.2,23-5.5,30.3,5.3,7.4,10.8,4.4,23-6.1,30.2-10.5,7.2-22.9,5.5-30.3-5.3-7.4-10.8-4.4-23,6.1-30.2ZM380.5,427.9c6.3-4.3,7.4-11.7,3.1-18-4.3-6.3-11.6-8-17.9-3.7-6.3,4.3-7.4,11.7-3.1,18,4.3,6.3,11.6,8,17.9,3.7Z"/>
          <path class="cls-4" d="M395.6,368.5c8.4-9.6,20.8-11.2,30.7-2.6,9.9,8.6,10.1,21.1,1.7,30.8-8.4,9.6-20.8,11.2-30.7,2.6-9.9-8.6-10.1-21.1-1.7-30.8ZM421.7,391.2c5-5.8,4.1-13.2-1.6-18.2-5.8-5-13.2-4.8-18.3,1-5,5.8-4.1,13.2,1.6,18.2,5.8,5,13.2,4.8,18.3-1Z"/>
          <path class="cls-4" d="M413.2,348.1l6.1-12.1c6-11.7,16-19,29.3-12.3,11.8,6,13.2,18.8,7.7,29.7l-6.7,13.1-36.5-18.5ZM446.3,354.8l2.1-4.2c3.8-7.5,3.8-14.5-4.5-18.7-7.2-3.6-13.4.4-16.9,7.2l-2.4,4.7,21.6,11Z"/>
        </g>
        <path class="cls-3" d="M389.6,277.8c6.3,0,11.4,5.1,11.4,11.4s-5.1,11.5-11.4,11.5-11.5-5.1-11.5-11.5,5.1-11.4,11.5-11.4ZM389.6,298.7c5.2,0,9.4-4.2,9.4-9.4s-4.2-9.4-9.4-9.4-9.4,4.2-9.4,9.4,4.2,9.4,9.4,9.4ZM385.2,282.6h5.1c3.1,0,4.6,1.4,4.6,3.9s-1.4,3.4-3.1,3.6l3.4,5.5h-2.5l-3.3-5.3h-1.7v5.3h-2.4v-13.1ZM387.6,288.3h1.7c1.5,0,3.1,0,3.1-1.8s-1.6-1.8-3.1-1.8h-1.7v3.7Z"/>
      </g>
    </g>
  </g>
</svg>