<?xml version="1.0" encoding="UTF-8"?>
<svg xmlns="http://www.w3.org/2000/svg" version="1.1" viewBox="0 0 4000 1500">
  <defs>
    <style>
      .cls-1 {
        fill: #1d1d1b;
        fill-rule: evenodd;
      }
    </style>
  </defs>
  <!-- Generator: Adobe Illustrator 28.7.2, SVG Export Plug-In . SVG Version: 1.2.0 Build 154)  -->
  <g>
    <g id="Layer_1">
      <g>
        <path class="cls-1" d="M2160.3,721s-35.3-21.8-57.1-30.3c0,0-67.5-31.3-81-46.2,0,0-26.3-24.8-10.9-53.6,0,0,6.4-18.9,34.3-18.9,0,0,36.2,2,36.2,31.8v42h129.8l-.2-61.9s10-101.3-152.9-105.7c0,0-128.1-8.4-164.8,60.6,0,0-14.4,15.4-14.4,69v38.7s-1.5,44.7,21.4,73.5c0,0,12.9,18.9,44.7,39.7,0,0,64.5,34.8,103.3,54.6,0,0,39.1,22.3,33.9,57.8,0,0-3.2,36.5-40.9,35,0,0-34.5-1.6-34.5-37.3v-42h-138.3v61s-3.9,116.6,173.9,116.6c0,0,169.8,3.5,177.7-119.7v-49.6s6-75.5-60-115.2h0Z"/>
        <polygon class="cls-1" points="1495.8 492.7 1452.3 765.1 1442.1 765.1 1400.6 495.2 1183.8 495.2 1172.9 988.4 1301.3 988.4 1302.8 616.8 1312.9 616.8 1381 988.4 1516 988.4 1583.3 616.9 1592.2 616.9 1595.3 988.4 1724.4 988.4 1710.5 492.7 1495.8 492.7 1495.8 492.7"/>
        <polygon class="cls-1" points="731.5 494.8 646.1 987.9 784.3 987.9 834.9 605.6 846.3 605.6 896.9 987.9 1035 987.9 949.6 494.8 731.5 494.8 731.5 494.8"/>
        <path class="cls-1" d="M3631.6,714.2v72.8h35.4v78.1c0,38.1-32.6,38.9-32.6,38.9-39.7,0-38.2-36.3-38.2-36.3v-270.1c0-27.8,35.2-29.3,35.2-29.3,33.8,0,34,33.2,34,33.2v41.1h130.1c4.2-80.1-11.7-99.6-11.7-99.6-32.3-72.5-154.4-68.5-154.4-68.5-187.7,0-166.8,144-166.8,144v261.1c4,135,188.9,121.3,192.1,121.2,82.3-9.1,107.1-35.2,107.1-35.2,22.9-17,28.8-40.5,28.8-40.5,6.5-13.7,8.2-57.4,8.2-57.4v-153.4h-167.1Z"/>
        <polygon class="cls-1" points="3200.3 794.5 3194.6 794.5 3062.5 492.9 2904.6 492.9 2904.6 988.5 3033.2 988.5 3025.4 686.9 3031.2 686.9 3168 988.5 3321.2 988.5 3321.2 492.8 3191 492.8 3200.3 794.5 3200.3 794.5"/>
        <path class="cls-1" d="M2590.7,865s1.9,40.7-35.8,40.7c0,0-39.7,2.1-39.7-39.7l-.4-372.9h-141v369.9s-14.5,140,183.1,140c0,0,171.7,2,171.7-133.6v-376.3h-137.8v371.8h0Z"/>
        <path class="cls-1" d="M462.6,721s-35.2-21.8-57.1-30.3c0,0-67.5-31.3-80.9-46.2,0,0-26.3-24.8-10.9-53.6,0,0,6.4-18.9,34.2-18.9,0,0,36.2,2,36.2,31.7v42h129.9l-.3-61.9s9.9-101.3-152.9-105.7c0,0-12.3-.8-30.3.1,0,0-98.6,5.3-133.9,59.4-.2.4-.5.7-.7,1.1,0,0-14.4,15.4-14.4,69v38.7s-1.5,44.7,21.4,73.5c0,0,12.9,18.9,44.7,39.7,0,0,64.5,34.7,103.2,54.6,0,0,39.1,22.3,34,57.9,0,0-3.2,36.5-40.9,35,0,0-34.5-1.6-34.5-37.3v-42h-138.4v61s-3.9,116.6,173.9,116.6c0,0,169.8,3.5,177.8-119.7v-49.6s5.9-75.5-60.1-115.2h0Z"/>
      </g>
    </g>
  </g>
</svg>