<?xml version="1.0" encoding="UTF-8"?>
<svg xmlns="http://www.w3.org/2000/svg" version="1.1" viewBox="0 0 841.9 595.3">
  <defs>
    <style>
      .cls-1 {
        fill: #48b14f;
        opacity: .2;
      }

      .cls-2 {
        display: none;
      }
    </style>
  </defs>
  <!-- Generator: Adobe Illustrator 28.7.3, SVG Export Plug-In . SVG Version: 1.2.0 Build 164)  -->
  <g>
    <g id="_图层_1" data-name="图层_1">
      <g>
        <path d="M186.4,224.3s-.6,0-.9,0c-.3,0-.9,0-.9,0-42.6.7-72.3,23.7-72.3,55.9s29.7,55.2,72.3,55.9c0,0,.6,0,.9,0,.3,0,.9,0,.9,0,42.6-.7,72.3-23.7,72.3-55.9s-29.7-55.2-72.3-55.9M185.5,317.9h0c-31.1-.3-51.2-15.1-51.2-37.7s20.1-37.4,51.2-37.7c31.1.3,51.2,15.1,51.2,37.7s-20.1,37.4-51.2,37.7"/>
        <path d="M657.4,224.3s-.6,0-.9,0c-.3,0-.9,0-.9,0-42.6.7-72.3,23.7-72.3,55.9s29.7,55.2,72.3,55.9c0,0,.6,0,.9,0,.3,0,.9,0,.9,0,42.6-.7,72.3-23.7,72.3-55.9s-29.7-55.2-72.3-55.9M656.4,317.9h0c-31.1-.3-51.2-15.1-51.2-37.7s20.1-37.4,51.2-37.7c31.1.3,51.2,15.1,51.2,37.7s-20.1,37.4-51.2,37.7"/>
        <path d="M500.7,224.3s-.6,0-.9,0c-.3,0-.9,0-.9,0-20.3.3-37.7,5.7-50.3,14.8v-9.5h-22v141.5h22v-49.7c12.6,9,30,14.4,50.3,14.8,0,0,.6,0,.9,0,.3,0,.9,0,.9,0,42.6-.7,72.3-23.7,72.3-55.9s-29.7-55.2-72.3-55.9M499.7,317.9h0c-31.1-.3-51.2-15.1-51.2-37.7s20.1-37.4,51.2-37.7c31.1.3,51.2,15.1,51.2,37.7s-20.1,37.4-51.2,37.7"/>
        <path d="M343.6,224.3s-.6,0-.9,0c-.3,0-.9,0-.9,0-20.3.3-37.7,5.7-50.3,14.8v-9.5h-22v141.5h22v-49.7c12.6,9,30,14.4,50.3,14.8,0,0,.6,0,.9,0,.3,0,.9,0,.9,0,42.6-.7,72.3-23.7,72.3-55.9s-29.7-55.2-72.3-55.9M342.6,317.9h0c-31.1-.3-51.2-15.1-51.2-37.7s20.1-37.4,51.2-37.7c31.1.3,51.2,15.1,51.2,37.7s-20.1,37.4-51.2,37.7"/>
      </g>
    </g>
    <g id="_图层_2" data-name="图层_2" class="cls-2">
      <path class="cls-1" d="M112.3,281.6s0-.6,0-.9c0-.3,0-.9,0-.9-.7-42.6-23.7-72.3-55.9-72.3S1.2,237.1.5,279.7c0,0,0,.6,0,.9,0,.3,0,.9,0,.9.7,42.6,23.7,72.3,55.9,72.3s55.2-29.7,55.9-72.3M18.7,280.7h0c.3-31.1,15.1-51.2,37.7-51.2s37.4,20.1,37.7,51.2c-.3,31.1-15.1,51.2-37.7,51.2s-37.4-20.1-37.7-51.2"/>
      <path class="cls-1" d="M841.9,280.9s0-.6,0-.9c0-.3,0-.9,0-.9-.7-42.6-23.7-72.3-55.9-72.3s-55.2,29.7-55.9,72.3c0,0,0,.6,0,.9,0,.3,0,.9,0,.9.7,42.6,23.7,72.3,55.9,72.3s55.2-29.7,55.9-72.3M748.2,280h0c.3-31.1,15.1-51.2,37.7-51.2s37.4,20.1,37.7,51.2c-.3,31.1-15.1,51.2-37.7,51.2s-37.4-20.1-37.7-51.2"/>
    </g>
  </g>
</svg>