<svg version="1.2" xmlns="http://www.w3.org/2000/svg" viewBox="0 0 295 126" width="295" height="126">
	<title>7-svg</title>
	<style>
		.s0 { fill: #000000 } 
	</style>
	<g>
		<g id="Layer_1">
			<path fill-rule="evenodd" class="s0" d="m277.2 63c0 5.7-2.2 24.6-25.3 24.6h-22.2c-23.2 0-25.2-18.9-25.2-24.6 0-5.7 2.1-24.6 25.2-24.6h22.2c23.2 0 25.3 18.9 25.3 24.6zm-11.7-0.1c0-3.2-1.1-13.5-13.6-13.5h-22.2c-12.5 0-13.6 10.3-13.6 13.5 0 3.2 1.1 13.4 13.6 13.4h22.2c12.5 0 13.6-10.2 13.6-13.4z"/>
			<path class="s0" d="m200.1 39.5h-7.3c-3.1 0-3.7 0.4-4.9 2.2-1.1 1.8-21.7 33.2-21.7 33.2-0.7 0.9-1.3 1.3-2.3 1.3-0.9 0-1.5-0.4-2.2-1.3 0 0-20.6-31.5-21.8-33.2-1.2-1.6-1.8-2.2-4.9-2.2h-7.2c-1.7 0-2.4 1.3-1.5 2.8 1.1 1.6 24.6 37.3 24.6 37.3 3.9 5.6 6.7 7.9 12.9 7.9 6.2 0 9-2.3 12.8-7.9 0 0 23.6-35.7 24.7-37.3 1-1.5 0.2-2.8-1.5-2.8"/>
			<path class="s0" d="m107.4 39.5h5.4c1.7 0 3.1 1.3 3.1 3.1v41.9c0 1.7-1.4 3.1-3.1 3.1h-5.4c-1.7 0-3.1-1.4-3.1-3.1v-41.9c0-1.8 1.4-3.1 3.1-3.1z"/>
			<path class="s0" d="m103.8 24.8l3.8-3.8c1.3-1.3 3.5-1.3 4.9 0l3.8 3.8c1.3 1.3 1.3 3.5 0 4.9l-3.8 3.8c-1.4 1.3-3.6 1.3-4.9 0l-3.8-3.8c-1.3-1.4-1.3-3.6 0-4.9z"/>
			<path class="s0" d="m92.4 39.5h-7.2c-3.1 0-3.7 0.4-4.9 2.2-1.2 1.8-21.8 33.2-21.8 33.2-0.7 0.9-1.3 1.3-2.2 1.3-1 0-1.6-0.4-2.3-1.3 0 0-20.6-31.5-21.8-33.2-1.2-1.8-1.7-2.2-4.8-2.2h-7.3c-1.9 0-2.4 1.3-1.4 2.8 1 1.6 24.6 37.3 24.6 37.3 3.8 5.6 6.7 7.9 12.8 7.9 6.2 0 9.1-2.3 12.9-7.9 0 0 23.5-35.7 24.6-37.3 1.1-1.5 0.5-2.8-1.4-2.8"/>
		</g>
	</g>
</svg>