<?xml version="1.0" encoding="UTF-8"?>
<svg xmlns="http://www.w3.org/2000/svg" version="1.1" viewBox="0 0 1920 1080">
  <defs>
    <style>
      .cls-1 {
        fill: #191919;
      }
    </style>
  </defs>
  <!-- Generator: Adobe Illustrator 28.7.2, SVG Export Plug-In . SVG Version: 1.2.0 Build 154)  -->
  <g>
    <g id="_图层_1" data-name="图层_1">
      <g>
        <path class="cls-1" d="M963.1,630.6c20.9,20.5,54.9,25.5,88,25.5s66-4.2,87-24.8c20.9-20.6,29.2-51.7,29.2-89.7s-7.3-68.1-28.3-88.7c-20.9-20.6-54.8-25.5-87.9-25.5s-66.2,4.2-87.1,24.8c-20.9,20.6-29,51.5-29,89.5s7.2,68.3,28.2,88.9ZM1000.9,487.5c11.6-13.3,30.4-15.6,50.2-15.6s38.5,2.3,50.2,15.6c11.6,13.3,12.4,31.2,12.4,54.3s-.8,41.4-12.4,54.7c-11.6,13.3-32.8,15.7-50.2,15.7s-38.5-2.3-50.1-15.6c-11.7-13.3-12.4-31.6-12.4-54.7s.8-40.9,12.4-54.3ZM836.4,512c-12.9-.9-42-4.6-70.8-3.1-17.2.9-50.1,2.4-69.5,12.7-15.8,8.4-25,16-29.9,30.2-4,11.4-5,25.2-3.8,36.4,2.9,25.5,11.8,38.3,23.7,47.1,18.9,14,42.8,21.4,92.1,20.3,65.7-1.4,82.9-22.7,91.6-37.7,14.8-25.7,12.3-66.2,11.8-91-.2-10.3-1.7-44.2-17.5-66-21.6-29.8-60.7-38.9-101.3-36.7-41.2,2.2-69.8,10.9-77.1,13.7-4.6,1.7-4,5.6-4,8-.2,7.9-.8,28.2-.7,36.5,0,3.7,4.5,5.4,8.3,4,15-5.3,42.7-13.8,65-15.6,24-1.9,56.7,0,65.7,13.6,4.6,7,4.5,18,5.1,28.9.7,12.9,3.5,67.2-3.6,82.2-6.2,13-28.3,15.1-41.4,15.7-24.2,1.1-42,.1-53.5-5.5-7.6-3.8-13.2-12.4-13.7-22.3-.4-8.4-.3-12.7,3.5-17.6,8.5-11.1,30.7-13.5,53.6-14.3,18.4-.7,48.7,1.9,65.8,4.5"/>
        <path class="cls-1" d="M1679.5,431.5h-46.8c-2,0-3.6,1.6-3.6,3.6v213.6c0,1.9,1.6,3.5,3.6,3.5h46.8c2,0,3.6-1.6,3.6-3.5v-213.6c0-2-1.7-3.6-3.6-3.6Z"/>
        <path class="cls-1" d="M1536.1,447.7c-19.1-17.7-49.7-19.9-74.5-19.9s-52.4,6.8-64.8,13.2h-8.6c-12.1-6.7-33.4-13.2-66.9-13.2s-55.2,1.8-73.9,17.5c-15.5,13-19.1,30.3-19.1,65.9v137.3c0,1.9,1.6,3.5,3.6,3.5h46.8c2,0,3.6-1.6,3.6-3.5v-.5s0-86.8,0-112.5-.8-41.6,3.6-49.6c3.4-6.2,8.8-13,34.2-13s37.5,2.1,42.3,15.6c1.1,3.2,1.7,7.7,1.9,13.2v146.8c0,1.9,1.6,3.5,3.6,3.5h46.8c2,0,3.6-1.6,3.6-3.5v-146.8c.3-5.5.8-10,1.9-13.2,4.8-13.4,11.9-15.6,42.3-15.6s30.8,6.9,34.2,13c4.4,7.9,3.6,29.2,3.6,49.6s0,112.5,0,112.5v.5c0,1.9,1.6,3.5,3.6,3.5h46.8c2,0,3.6-1.6,3.6-3.5v-128.9c0-36.9-1.2-55.8-18.5-71.9Z"/>
        <path class="cls-1" d="M592.7,431.5h-46.8c-2,0-3.6,1.6-3.6,3.6v213.6c0,1.9,1.6,3.5,3.6,3.5h46.8c2,0,3.6-1.6,3.6-3.5v-213.6c0-2-1.7-3.6-3.6-3.6Z"/>
        <path class="cls-1" d="M395.9,540.1l83.2-103c1.8-2.2.2-5.6-2.7-5.6h-60c-1.4,0-2.8.7-3.6,1.8l-55,72.9-53.6-72.8c-.9-1.2-2.2-1.9-3.7-1.9h-60.1c-2.9,0-4.5,3.3-2.7,5.6l84.2,104.9-84.3,104.8c-1.7,2.2-.1,5.5,2.7,5.5h60.1c1.5,0,2.8-.7,3.7-1.9l56.2-72.6,53.2,72.6c.9,1.2,2.2,1.9,3.7,1.9h59.4c2.8,0,4.4-3.3,2.7-5.5l-83.4-106.7Z"/>
      </g>
    </g>
  </g>
</svg>