<?xml version="1.0" encoding="UTF-8"?>
<svg xmlns="http://www.w3.org/2000/svg" version="1.1" viewBox="0 0 783.1 796.1">
  <defs>
    <style>
      .cls-1 {
        font-family: MyriadPro-Regular, 'Myriad Pro';
        font-size: 12px;
      }
    </style>
  </defs>
  <!-- Generator: Adobe Illustrator 28.7.2, SVG Export Plug-In . SVG Version: 1.2.0 Build 154)  -->
  <g>
    <g id="Capa_1">
      <g>
        <g>
          <polygon points="92.9 716.2 33 716.2 33 663.4 6.5 663.4 6.5 794.1 33 794.1 33 741.1 92.9 741.1 92.9 794.1 119.4 794.1 119.4 663.4 92.9 663.4 92.9 716.2"/>
          <path d="M242.3,738.2c0,21.3-10.6,32.6-29.7,32.6s-29.9-11.7-29.9-33.5v-73.8h-26.5v74.7c0,36.8,20.4,57.9,56,57.9s56.6-21.5,56.6-58.9v-73.7h-26.5v74.8Z"/>
          <polygon points="548.8 753.3 519.1 663.4 497.5 663.4 467.8 753.3 438.9 663.5 410.7 663.5 456.2 794.1 478.2 794.1 507.9 708.3 537.6 794.1 559.8 794.1 605.2 663.5 577.7 663.5 548.8 753.3"/>
          <polygon points="652.8 737.9 701 737.9 701 714.1 652.8 714.1 652.8 687.3 722.8 687.3 722.8 663.5 626.6 663.5 626.6 794.1 725.3 794.1 725.3 770.2 652.8 770.2 652.8 737.9"/>
          <rect x="756.9" y="663.4" width="26.2" height="130.5"/>
          <path d="M381,766.9l11.7,27.2h27.8l-57-129.9-.5-.8h-23.2l-57.6,130.6h27.1l11.1-25.3h0l.8-1.9h59.8ZM351.1,696.5l18.9,43.7h0l1.3,3h-40.1l1.3-3h0l18.8-43.7Z"/>
        </g>
        <path d="M337.1,458.8s1.4-1.1.7-2.9h0C245.8,255.5,119.9,103.6,119.9,103.6c0,0-68.5,64.8-63.6,129.7,2.6,49.1,39.7,78.2,39.7,78.2,59.7,58,204.3,131.2,237.9,147.8.5.2,2.2.8,3.2-.5"/>
        <path d="M314.8,508.4c-.6-2.2-3.1-2.2-3.1-2.2h0c0,0-240.7,8.3-240.7,8.3,26.1,46.4,70.1,82.4,115.9,71.4,31.6-7.9,103.2-57.6,126.8-74.5h0c1.8-1.7,1.2-3,1.2-3"/>
        <path d="M318.4,486.8c1.2-1.9-.9-3.6-.9-3.6h0C211.8,412.1,6.9,303,6.9,303c-18.6,57.5,6.5,103.8,6.5,103.8,26.1,55,76,71.7,76,71.7,23,9.4,46,10.1,46,10.1,3.6.6,143.2,0,180.6-.1,1.6,0,2.5-1.6,2.5-1.6"/>
        <path d="M334.4,0c-10.5.9-38.8,7.3-38.8,7.3-63.7,16.4-78.8,74.1-78.8,74.1-11.6,36.3.3,76.1.3,76.1,21.3,94.1,126,248.7,148.5,281.1,1.6,1.6,2.9,1,2.9,1,2.4-.7,2.3-3,2.3-3h0C405.4,91.5,334.4,0,334.4,0"/>
        <path d="M414.1,439.5c2.3.9,3.5-1.3,3.5-1.3h0c23.1-33.3,127.2-187,148.3-280.7,0,0,11.5-45.4.4-76.1,0,0-15.7-58.5-79.6-74,0,0-18.4-4.6-37.9-7.4,0,0-71.4,91.5-36.7,436.9h0c.3,2.2,1.8,2.6,1.8,2.6"/>
        <path d="M471.1,506.4s-2.1.3-2.7,1.8c0,0-.5,2.2.9,3.2h0c23,16.5,92.9,65.2,126.6,74.6,0,0,62.2,21.2,116.2-71.4l-241-8.4h0Z"/>
        <path d="M776.2,302.5s-204.6,109.4-310.4,180.6h0s-1.9,1.3-1.2,3.5c0,0,1,1.8,2.5,1.8h0c37.9.1,181.3.2,184.9-.4,0,0,18.5-.7,41.4-9.5,0,0,51-16.2,77.5-73.9,0,0,23.6-47.1,5.4-102.1"/>
        <path d="M446.4,458.8s1.7,1.2,3.3.2h0c34.5-17,178-89.8,237.4-147.5,0,0,37.6-30.2,39.6-78.5,4.4-67.2-63.5-129.4-63.5-129.4,0,0-125.5,151.4-217.5,351.3h0s-1.1,2.3.7,3.8"/>
      </g>
      <text class="cls-1" transform="translate(4669.2 872.8)"><tspan x="0" y="0">Logo HUAWEI Vertical</tspan></text>
      <text class="cls-1" transform="translate(4669.2 872.8)"><tspan x="0" y="0">Logo HUAWEI Vertical</tspan></text>
    </g>
  </g>
</svg>