<svg version="1.2" xmlns="http://www.w3.org/2000/svg" viewBox="0 0 80 80" width="80" height="80">
	<title>beneficio-svg</title>
	<style>
		tspan { white-space:pre } 
		.s0 { fill: #000000 } 
		.t1 { font-size: 5px;fill: #000000;font-family: "' Helvetica  Neue'" } 
	</style>
	<path fill-rule="evenodd" className="s0" d="m70 31.8q0.1 0.2 0 0.4 0 0.2-0.2 0.4-0.1 0.2-0.4 0.3-0.2 0.1-0.4 0.1h-1.1l-3.9 29.1q0 0.2-0.1 0.4-0.1 0.1-0.2 0.3-0.2 0.1-0.3 0.1-0.2 0.1-0.4 0.1h-18q-0.2 0-0.4-0.1-0.1 0-0.3-0.1-0.1-0.2-0.2-0.3-0.1-0.2-0.1-0.4l-3.9-29.1h-1.1q-0.2 0-0.4-0.1-0.3-0.1-0.4-0.3-0.2-0.2-0.2-0.4-0.1-0.2 0-0.4l1-4q0-0.2 0.1-0.3 0.1-0.2 0.3-0.3 0.1-0.1 0.3-0.2 0.1 0 0.3 0h11.9l2.4-6.4q0.2-0.7 0.6-1.2 0.5-0.6 1-1 0.6-0.5 1.3-0.7 0.6-0.3 1.3-0.3l9.3-0.9q0.2 0 0.4 0.1 0.2 0 0.3 0.2 0.2 0.1 0.3 0.3 0.1 0.2 0.1 0.3l0.2 3.1q0.1 0.2 0 0.4-0.1 0.2-0.2 0.3-0.1 0.2-0.3 0.3-0.2 0.1-0.4 0.1l-8.5 0.8q-0.2 0-0.3 0-0.1 0.1-0.3 0.2-0.1 0-0.2 0.2 0 0.1-0.1 0.2l-1.5 4h10.7q0.2 0 0.3 0 0.2 0.1 0.3 0.2 0.2 0.1 0.3 0.3 0.1 0.1 0.1 0.3zm-15.9-4.8h1.1l1.8-4.7q0.1-0.4 0.4-0.7 0.2-0.4 0.5-0.7 0.4-0.2 0.8-0.4 0.4-0.1 0.8-0.2l7.6-0.6-0.1-1.1-8.3 0.7q-0.4 0-0.8 0.2-0.4 0.1-0.8 0.4-0.3 0.3-0.6 0.6-0.2 0.4-0.4 0.8zm11.8 6h-23.7l3.8 28h16.2zm1.9-2l-0.5-2h-26.5l-0.5 2z"/>
	<path fill-rule="evenodd" class="s0" d="m52.1 47.8q-0.2 0-0.5-0.1-0.2-0.1-0.4-0.2-0.2-0.1-0.3-0.3-0.3-0.3-0.4-0.6-0.2-0.3-0.3-0.7 0-0.3 0-0.7 0-0.4 0.1-0.7 0.3-0.7 0.7-1.4 0.4-0.7 0.9-1.2 0.6-0.6 1.2-1 0.7-0.4 1.4-0.6c0.5-0.2 1-0.2 1.5-0.2 0.4 0.1 0.9 0.4 1.2 0.7 0.4 0.4 0.6 0.8 0.7 1.3 0.1 0.5 0 1-0.1 1.4q-0.3 0.8-0.7 1.4-0.4 0.7-0.9 1.2-0.6 0.6-1.2 1-0.7 0.4-1.4 0.6-0.2 0.1-0.3 0.1-0.1 0-0.2 0-0.2 0-0.3 0-0.1 0.1-0.2 0.1-0.3 0-0.5-0.1zm0.1-2c0.1 0 0.4 0.1 0.8 0q0.5-0.2 0.9-0.5 0.4-0.3 0.8-0.6 0.4-0.4 0.6-0.8 0.3-0.5 0.5-0.9c0.1-0.4 0-0.7 0-0.8q-0.1 0-0.1 0 0 0-0.1-0.1 0 0-0.1 0 0 0-0.1 0 0 0-0.1 0 0 0-0.1 0.1 0 0-0.1 0 0 0-0.1 0-0.5 0.2-0.9 0.4-0.4 0.3-0.8 0.7-0.4 0.3-0.6 0.8-0.3 0.4-0.5 0.9c-0.1 0.4-0.1 0.7 0 0.8z"/>
	<path fill-rule="evenodd" class="s0" d="m32.4 35.7c1.1 0.4 2.1 1.1 3 1.9 0.8 0.9 1.5 1.9 1.9 3 0.5 1 0.7 2.2 0.7 3.4v1q0 0.3-0.1 0.5 0 0.3-0.1 0.6-0.1 0.2-0.2 0.5-0.2 0.2-0.4 0.4 0.2 0.2 0.4 0.4 0.1 0.3 0.2 0.5 0.1 0.3 0.1 0.6 0.1 0.2 0.1 0.5 0 0.3-0.1 0.5 0 0.3-0.1 0.6-0.1 0.2-0.2 0.5-0.2 0.2-0.4 0.4 0.2 0.2 0.4 0.4 0.1 0.3 0.2 0.5 0.1 0.3 0.1 0.6 0.1 0.2 0.1 0.5v1c0 1.2-0.2 2.4-0.7 3.4-0.4 1.1-1.1 2.1-1.9 3-0.9 0.8-1.9 1.5-3 1.9-1 0.5-2.2 0.7-3.4 0.7h-10c-1.2 0-2.4-0.2-3.4-0.7-1.1-0.4-2.1-1.1-3-1.9-0.8-0.9-1.5-1.9-1.9-3-0.5-1-0.7-2.2-0.7-3.4v-1q0-0.3 0.1-0.5 0-0.3 0.1-0.6 0.1-0.2 0.2-0.5 0.2-0.2 0.4-0.4-0.2-0.2-0.4-0.4-0.1-0.3-0.2-0.5-0.1-0.3-0.1-0.6-0.1-0.2-0.1-0.5 0-0.3 0.1-0.5 0-0.3 0.1-0.6 0.1-0.2 0.2-0.5 0.2-0.2 0.4-0.4-0.2-0.2-0.4-0.4-0.1-0.3-0.2-0.5-0.1-0.3-0.1-0.6-0.1-0.2-0.1-0.5v-1c0-1.2 0.2-2.4 0.7-3.4 0.4-1.1 1.1-2.1 1.9-3 0.9-0.8 1.9-1.5 3-1.9 1-0.5 2.2-0.7 3.4-0.7h10c1.2 0 2.4 0.2 3.4 0.7zm3.6 17.3q0-0.2-0.1-0.4-0.1-0.2-0.2-0.3-0.1-0.1-0.3-0.2-0.2-0.1-0.4-0.1h-5v0.5c0 0.7-0.3 1.3-0.7 1.8-0.5 0.4-1.1 0.7-1.8 0.7-0.7 0-1.3-0.3-1.8-0.7-0.4-0.5-0.7-1.1-0.7-1.8v-0.5h-2v2.5c0 0.7-0.3 1.3-0.7 1.8-0.5 0.4-1.1 0.7-1.8 0.7-0.7 0-1.3-0.3-1.8-0.7-0.4-0.5-0.7-1.1-0.7-1.8v-2.5h-5q-0.2 0-0.4 0.1-0.2 0.1-0.3 0.2-0.1 0.1-0.2 0.3-0.1 0.2-0.1 0.4v1q0 1.4 0.5 2.7 0.6 1.3 1.6 2.2 0.9 1 2.2 1.6 1.3 0.5 2.7 0.5h10q1.4 0 2.7-0.5 1.3-0.6 2.2-1.6 1-0.9 1.6-2.2 0.5-1.3 0.5-2.7zm-0.2-3.4q0.1-0.1 0.1-0.2 0.1-0.1 0.1-0.2 0-0.1 0-0.2 0-0.2-0.1-0.4-0.1-0.2-0.2-0.3-0.1-0.1-0.3-0.2-0.2-0.1-0.4-0.1h-22q-0.1 0-0.2 0-0.1 0-0.2 0.1-0.1 0-0.1 0.1-0.1 0-0.2 0.1-0.1 0.1-0.1 0.1-0.1 0.1-0.1 0.2-0.1 0.1-0.1 0.2 0 0.1 0 0.2 0 0.2 0.1 0.4 0.1 0.2 0.2 0.3 0.1 0.1 0.3 0.2 0.2 0.1 0.4 0.1h6q0.2 0 0.4 0.1 0.2 0.1 0.3 0.2 0.1 0.1 0.2 0.3 0.1 0.2 0.1 0.4v3.5q0 0.2 0.1 0.4 0.2 0.1 0.4 0.1 0.2 0 0.4-0.1 0.1-0.2 0.1-0.4v-3.5q0-0.2 0.1-0.4 0.1-0.2 0.2-0.3 0.1-0.1 0.3-0.2 0.2-0.1 0.4-0.1h4q0.2 0 0.4 0.1 0.2 0.1 0.3 0.2 0.1 0.1 0.2 0.3 0.1 0.2 0.1 0.4v1.5q0 0.2 0.1 0.4 0.2 0.1 0.4 0.1 0.2 0 0.4-0.1 0.1-0.2 0.1-0.4v-1.5q0-0.2 0.1-0.4 0.1-0.2 0.2-0.3 0.1-0.1 0.3-0.2 0.2-0.1 0.4-0.1h6q0.1 0 0.2 0 0.1 0 0.2-0.1 0.1 0 0.1-0.1 0.1 0 0.2-0.1 0.1-0.1 0.1-0.1zm0.2-5.6q0-1.4-0.5-2.7-0.6-1.3-1.6-2.2-0.9-1-2.2-1.6-1.3-0.5-2.7-0.5h-10q-1.4 0-2.7 0.5-1.3 0.6-2.2 1.6-1 0.9-1.6 2.2-0.5 1.3-0.5 2.7v1q0 0.2 0.1 0.4 0.1 0.2 0.2 0.3 0.1 0.1 0.3 0.2 0.2 0.1 0.4 0.1h22q0.2 0 0.4-0.1 0.2-0.1 0.3-0.2 0.1-0.1 0.2-0.3 0.1-0.2 0.1-0.4z"/>
	<text id="from the Noun Project" style="transform: matrix(1,0,0,1,8,84)" >
		<tspan x="0" y="0" class="t1">from the Noun Project
</tspan>
	</text>
</svg>