<svg version="1.2" xmlns="http://www.w3.org/2000/svg" viewBox="0 0 96 100" width="96" height="100">
	<title>fila-rapida-svg</title>
	<style>
		tspan { white-space:pre } 
		.s0 { fill: #000000 } 
		.t1 { font-size: 5px;fill: #000000;font-family: "' Helvetica  Neue'" } 
	</style>
	<path class="s0" d="m55 48c-0.4 0-0.9-0.1-1.3-0.4-0.8-0.7-1-2-0.3-2.8l7-8.8-7-8.7c-0.7-0.9-0.5-2.2 0.3-2.9 0.9-0.7 2.2-0.5 2.9 0.4l8 10c0.5 0.7 0.5 1.7 0 2.5l-8 10c-0.4 0.4-1 0.7-1.6 0.7z"/>
	<path fill-rule="evenodd" class="s0" d="m93 90h-72c-1.1 0-2-0.9-2-2v-76c0-1.1 0.9-2 2-2h72c1.1 0 2 0.9 2 2v76c0 1.1-0.9 2-2 2zm-70-4h68v-72h-68z"/>
	<path class="s0" d="m63 38h-60c-1.1 0-2-0.9-2-2 0-1.1 0.9-2 2-2h60c1.1 0 2 0.9 2 2 0 1.1-0.9 2-2 2z"/>
	<path class="s0" d="m55 76c-0.4 0-0.9-0.1-1.3-0.4-0.8-0.7-1-2-0.3-2.8l7-8.8-7-8.8c-0.7-0.8-0.5-2.1 0.3-2.8 0.9-0.7 2.2-0.5 2.9 0.3l8 10c0.5 0.8 0.5 1.8 0 2.5l-8 10c-0.4 0.5-1 0.8-1.6 0.8z"/>
	<path class="s0" d="m63 66h-60c-1.1 0-2-0.9-2-2 0-1.1 0.9-2 2-2h60c1.1 0 2 0.9 2 2 0 1.1-0.9 2-2 2z"/>
	<text id="from the Noun Project" style="transform: matrix(1,0,0,1,0,106)" >
		<tspan x="0" y="0" class="t1">from the Noun Project
</tspan>
	</text>
</svg>