<svg version="1.2" xmlns="http://www.w3.org/2000/svg" viewBox="0 0 100 100" width="100" height="100">
	<title>parqueadero-svg</title>
	<style>
		tspan { white-space:pre } 
		.s0 { fill: #000000 } 
		.t1 { font-size: 5px;fill: #000000;font-family: "' Helvetica  Neue'" } 
	</style>
	<path fill-rule="evenodd" class="s0" d="m11 91.5q-0.3 0-0.6-0.1-0.2-0.1-0.5-0.3-0.2-0.3-0.3-0.5-0.1-0.3-0.1-0.6v-80q0-0.3 0.1-0.6 0.1-0.2 0.3-0.5 0.3-0.2 0.5-0.3 0.3-0.1 0.6-0.1h25.7q1.5 0 2.9 0.6 1.3 0.6 2.4 1.6 1.1 1.1 1.7 2.5 0.5 1.4 0.5 2.9v14.4q0 1.5-0.5 2.9-0.6 1.4-1.7 2.5-1.1 1-2.4 1.6-1.4 0.6-2.9 0.6h-17.8v51.9q0 0.3-0.1 0.6-0.1 0.2-0.3 0.5-0.2 0.2-0.5 0.3-0.3 0.1-0.6 0.1zm8-56.4h17.7q0.9 0 1.7-0.4 0.9-0.3 1.5-1 0.7-0.6 1-1.4 0.4-0.9 0.4-1.8v-14.4q0-0.9-0.4-1.8-0.3-0.8-1-1.5-0.6-0.6-1.5-1-0.8-0.3-1.7-0.3h-17.7zm-6.5 53.4h3.5v-77h-3.5z"/>
	<path fill-rule="evenodd" class="s0" d="m31 14.3c1.4 0 2.7 0.5 3.7 1.5 1 1 1.6 2.4 1.6 3.8 0 1.3-0.6 2.7-1.5 3.7-1 1-2.4 1.5-3.8 1.6h-2.3v5.9c0 0.4-0.1 0.8-0.4 1.1-0.3 0.2-0.7 0.4-1.1 0.4-0.3 0-0.7-0.2-1-0.4-0.3-0.3-0.5-0.7-0.5-1.1v-15q0.1-0.3 0.2-0.6 0.1-0.3 0.3-0.5 0.2-0.2 0.5-0.3 0.3-0.1 0.5-0.1h3.8zm1.6 6.9c0.4-0.5 0.7-1 0.7-1.7 0-0.6-0.3-1.1-0.7-1.6-0.4-0.4-1-0.6-1.6-0.6h-2.3v4.5h2.3c0.6 0 1.2-0.2 1.6-0.6z"/>
	<path fill-rule="evenodd" class="s0" d="m90.9 65.1q0.3 0.4 0.5 0.9 0.2 0.4 0.3 0.9 0.1 0.4 0.2 0.9c0.6 4.5 1.1 10.4-0.4 13.1q-0.1 0.1-0.2 0.2-0.1 0.1-0.2 0.1 0 0.1-0.2 0.2-0.1 0.1-0.2 0.1l-0.5 0.2v5.5q0 0.9-0.3 1.6-0.3 0.8-0.9 1.4-0.6 0.6-1.4 1-0.8 0.3-1.7 0.3h-4.7q-0.9 0-1.7-0.3-0.8-0.4-1.4-1-0.6-0.6-0.9-1.4-0.3-0.7-0.3-1.6v-2.6q-2.1 0.3-4.3 0.5-2.1 0.2-4.2 0.3-2.1 0.1-4.3 0.2-2.1 0-4.2 0-2.2 0-4.3 0-2.1-0.1-4.2-0.2-2.2-0.1-4.3-0.3-2.1-0.2-4.2-0.5v2.6q0 0.9-0.3 1.6-0.4 0.8-1 1.4-0.6 0.6-1.4 1-0.8 0.3-1.6 0.3h-4.8q-0.8 0-1.6-0.3-0.8-0.4-1.4-1-0.6-0.6-0.9-1.4-0.4-0.7-0.4-1.6v-5.5l-0.5-0.2q-0.1-0.1-0.2-0.1-0.1-0.1-0.2-0.2-0.1 0-0.2-0.1 0-0.1-0.1-0.2c-1.5-2.7-1.1-8.6-0.4-13.1q0-0.5 0.2-0.9 0.1-0.5 0.3-0.9 0.2-0.5 0.5-0.9 0.2-0.4 0.5-0.7l4.6-5.3 3.3-13.6q0.3-1.5 1.1-2.8 0.8-1.3 1.9-2.2 1.2-1 2.6-1.5 1.4-0.5 2.9-0.5h28.1q1.5 0 3 0.5 1.4 0.5 2.5 1.5 1.2 0.9 2 2.2 0.8 1.3 1 2.8l3.4 13.6 4.5 5.3q0.3 0.3 0.6 0.7zm-53.7-6.6q1.6 0.2 3.2 0.4l2.1-9.3q0.3-1.1 0.9-2.1 0.6-1 1.5-1.8 1-0.7 2.1-1.1 1.1-0.4 2.3-0.4h21.2q1.2 0 2.3 0.4 1.2 0.4 2.1 1.1 0.9 0.8 1.5 1.8 0.7 1 0.9 2.2l2 9.2q1.6-0.2 3.2-0.4l-3-12.3q-0.2-1-0.7-1.9-0.5-0.8-1.2-1.5-0.8-0.6-1.7-1-1-0.3-2-0.3h-28.1q-0.9 0-1.9 0.3-0.9 0.4-1.7 1-0.7 0.6-1.2 1.5-0.5 0.8-0.7 1.8zm37.1-8.2q-0.2-0.7-0.5-1.3-0.4-0.6-0.9-1-0.5-0.4-1.2-0.6-0.6-0.2-1.3-0.2h-21.2q-0.6 0-1.3 0.2-0.6 0.2-1.1 0.6-0.6 0.4-0.9 1-0.4 0.6-0.5 1.2l-2.2 9.7q4.1 0.7 8.3 1.1 4.2 0.4 8.3 0.4 4.2 0 8.4-0.4 4.1-0.4 8.2-1.1zm-34.4 33.9q-1-0.1-1.9-0.3-0.9-0.2-1.8-0.4-0.9-0.1-1.9-0.4-0.9-0.2-1.8-0.4v4.5q0 0.3 0.1 0.5 0.1 0.3 0.3 0.4 0.2 0.2 0.4 0.3 0.3 0.1 0.5 0.1h4.8q0.2 0 0.5-0.1 0.2-0.1 0.4-0.3 0.2-0.1 0.3-0.4 0.1-0.2 0.1-0.5zm47.3-1.5q-0.9 0.2-1.8 0.5-0.9 0.2-1.8 0.4-1 0.2-1.9 0.3-0.9 0.2-1.8 0.3v3q0 0.3 0.1 0.5 0.1 0.3 0.2 0.4 0.2 0.2 0.5 0.3 0.2 0.1 0.5 0.1h4.7q0.3 0 0.5-0.1 0.2-0.1 0.4-0.3 0.2-0.1 0.3-0.4 0.1-0.2 0.1-0.5zm1.7-14.4q0-0.3-0.1-0.5-0.1-0.3-0.2-0.5-0.1-0.3-0.3-0.5-0.1-0.2-0.3-0.4l-4.2-4.9q-5.8 1.5-11.9 2.2-6 0.8-12 0.8-6.1 0-12.1-0.8-6-0.7-11.9-2.2l-4.2 4.9q-0.2 0.2-0.3 0.4-0.2 0.2-0.3 0.5-0.1 0.2-0.2 0.5-0.1 0.2-0.1 0.5c-0.7 5-0.8 9-0.1 10.7 2.2 0.8 11.3 3.7 29.2 3.7 17.4 0 26.9-2.9 29.1-3.7 0.7-1.8 0.6-5.7-0.1-10.7z"/>
	<path fill-rule="evenodd" class="s0" d="m44.1 71.9c0 3-2.1 5.3-4.7 5.3-2.6 0-4.7-2.4-4.7-5.3 0-2.9 2.1-5.3 4.7-5.3 2.6 0 4.7 2.4 4.7 5.3zm-3 0c0-1.3-0.8-2.3-1.7-2.3-0.9 0-1.7 1-1.7 2.3 0 1.3 0.8 2.3 1.7 2.3 0.9 0 1.7-1 1.7-2.3z"/>
	<path fill-rule="evenodd" class="s0" d="m85.1 71.9c0 3-2.1 5.3-4.7 5.3-2.6 0-4.7-2.4-4.7-5.3 0-2.9 2.1-5.3 4.7-5.3 2.6 0 4.7 2.4 4.7 5.3zm-3 0c0-1.3-0.8-2.3-1.7-2.3-0.9 0-1.7 1-1.7 2.3 0 1.3 0.8 2.3 1.7 2.3 0.9 0 1.7-1 1.7-2.3z"/>
	<text id="from the Noun Project" style="transform: matrix(1,0,0,1,0,107)" >
		<tspan x="0" y="0" class="t1">from the Noun Project
</tspan>
	</text>
</svg>