<svg version="1.2" xmlns="http://www.w3.org/2000/svg" viewBox="0 0 80 80" width="80" height="80">
	<title>preventa-svg</title>
	<style>
		tspan { white-space:pre } 
		.s0 { fill: #000000 } 
		.t1 { font-size: 5px;fill: #000000;font-family: "' Helvetica  Neue'" } 
	</style>
	<g>
		<g>
			<path class="s0" d="m53 24.6c0.9 1.5 0.4 3.5-1.2 4.5-1.6 0.9-3.6 0.3-4.5-1.2l-2.6-4.6c-0.9-1.5-0.4-3.5 1.2-4.5 1.6-0.9 3.6-0.3 4.5 1.3z"/>
			<path fill-rule="evenodd" class="s0" d="m54.3 8.5c4 0 7.8 2.1 9.9 5.7l1.6 2.7c0.4 0.8 0.5 1.7 0.3 2.5-0.1 0.2-0.1 0.3-0.2 0.5q-0.2 0.3-0.4 0.6-0.2 0.3-0.4 0.5c-0.1 0.1-0.4 0.2-0.5 0.4-1.3 0.7-1.9 2-2 3.3q0 1 0.5 1.9c0.8 1.3 2.1 2 3.4 2q1 0 2-0.5c1.5-0.9 3.5-0.4 4.4 1.2l1.5 2.6c1.1 1.8 1.6 3.8 1.6 5.7 0 3.9-2 7.8-5.7 9.9l-7.1 4.1-31.8 18.4c-1.8 1-3.8 1.5-5.7 1.5-4 0-7.8-2-10-5.7l-1.5-2.7c-0.9-1.5-0.3-3.5 1.2-4.4 1.3-0.8 1.9-2.1 2-3.4 0-0.6-0.2-1.3-0.5-1.9-0.8-1.3-2-2-3.4-2q-1 0-2 0.6c-0.7 0.4-1.6 0.5-2.4 0.3-0.9-0.2-1.6-0.8-2-1.5l-1.6-2.7c-1-1.8-1.5-3.8-1.5-5.7 0-3.9 2-7.8 5.7-9.9l31.8-18.4 7.1-4.1c1.8-1 3.8-1.5 5.7-1.5zm4.2 36l1 1.7 0.5-0.2 7-4.1c1.6-0.9 2.4-2.6 2.5-4.3q0-1.2-0.7-2.4l-0.2-0.3q-1.1 0.2-2.1 0.2c-3.6 0-7.1-1.8-9-5.2-0.9-1.6-1.4-3.4-1.4-5.2 0-2.5 0.9-5 2.6-6.9l-0.1-0.3c-0.9-1.6-2.6-2.5-4.3-2.5q-1.2 0-2.4 0.7l-7.1 4.1-0.4 0.2 0.9 1.7c1 1.6 0.4 3.6-1.1 4.5-1.6 0.9-3.6 0.4-4.5-1.2l-1-1.7-25.7 14.8c-1.5 1-2.4 2.6-2.5 4.3 0 0.8 0.3 1.7 0.7 2.4l0.2 0.4c0.7-0.2 1.4-0.3 2.1-0.3 3.6 0 7.1 1.9 9 5.2 1 1.6 1.4 3.4 1.4 5.2 0 2.6-0.9 5-2.7 6.9l0.2 0.3c0.9 1.6 2.6 2.5 4.3 2.5q1.3 0 2.4-0.7l25.7-14.8-1-1.7c-0.9-1.6-0.3-3.6 1.2-4.5 1.6-0.9 3.6-0.4 4.5 1.2z"/>
		</g>
	</g>
	<text id="from the Noun Project" style="transform: matrix(.8,0,0,.8,0,85.6)" >
		<tspan x="0" y="0" class="t1">from the Noun Project
</tspan>
	</text>
</svg>