<svg version="1.2" xmlns="http://www.w3.org/2000/svg" viewBox="0 0 80 80" width="80" height="80">
	<title>vip-svg</title>
	<style>
		tspan { white-space:pre } 
		.s0 { fill: #000000 } 
		.t1 { font-size: 5px;fill: #000000;font-family: "' Helvetica  Neue'" } 
	</style>
	<path fill-rule="evenodd" class="s0" d="m71.4 67.5v1.6h-8.3v-1.6h1.8v-21.4h1.6v-2.9c-0.8 0.2-2 0.4-3 0.6l-0.8 0.2 0.3 1.9-0.7 0.1c-6.1 1.4-15.9 2-22.3 2-6.4 0-16.2-0.6-22.3-1.9l-0.8-0.2 0.4-1.9-0.8-0.2c-1-0.2-2.2-0.4-3.1-0.7v3h1.7v21.3h1.8v1.6h-8.3v-1.6h1.7v-21.3h1.5v-5.1c-1.4-0.4-2.3-1.7-2.1-3.2 0.2-1.5 1.5-2.5 2.9-2.5 1.5 0 2.7 1 2.9 2.5 0.2 1.5-0.7 2.8-2.1 3.2v0.5c0.9 0.2 2.3 0.5 3.4 0.7l0.8 0.2 0.4-2 0.8 0.2c5.7 1.3 15 1.9 21.2 1.9 6.2 0 15.5-0.6 21.2-1.9l0.8-0.2 0.4 2 0.8-0.2c1.1-0.2 2.5-0.5 3.4-0.7v-0.5c-1.5-0.4-2.4-1.8-2.2-3.2 0.2-1.5 1.5-2.6 3-2.6 1.4 0 2.7 1.1 2.9 2.6 0.2 1.4-0.7 2.8-2.1 3.2v5.1h1.5v21.3zm-59.5-19.8v19.8h1.6v-19.8zm-0.6-8.9q0.1 0.2 0.3 0.4 0.2 0.2 0.5 0.3 0.2 0.1 0.5 0.1c0.5 0 1-0.3 1.2-0.8 0.2-0.5 0.1-1.1-0.3-1.5-0.4-0.4-0.9-0.5-1.4-0.3-0.5 0.2-0.9 0.7-0.9 1.3q0 0.2 0.1 0.5zm7.4 5.9q1.2 0.3 2.4 0.4l0.3-2.3q-1.2-0.2-2.3-0.4zm4.1 0.7q2.1 0.2 4.2 0.4 2.2 0.2 4.3 0.4 2.2 0.1 4.3 0.2 2.2 0 4.3 0 2.2 0 4.3 0 2.2-0.1 4.3-0.2 2.2-0.2 4.3-0.4 2.2-0.2 4.3-0.4l-0.3-2.4q-2.1 0.3-4.2 0.5-2.1 0.2-4.2 0.3-2.1 0.1-4.2 0.2-2.2 0.1-4.3 0.1-2.1 0-4.2-0.1-2.1-0.1-4.2-0.2-2.2-0.1-4.3-0.3-2.1-0.2-4.2-0.5l-0.3 2.4zm36-0.3c0.8-0.1 1.6-0.3 2.4-0.4l-0.5-2.3c-0.7 0.1-1.5 0.3-2.3 0.4l0.3 2.3zm7.3-6.9q0 0.3 0.1 0.6 0.1 0.2 0.3 0.4 0.2 0.2 0.4 0.3 0.2 0.1 0.5 0.1c0.5 0 1-0.3 1.2-0.8 0.2-0.6 0.1-1.1-0.3-1.5-0.3-0.4-0.9-0.5-1.4-0.3-0.5 0.2-0.9 0.7-0.8 1.2zm0.4 9.5v19.8h1.6v-19.8zm-32.7-20.9l-6.2-6.1 8.6-1.3 3.9-7.8 3.8 7.8 8.7 1.3-6.3 6.1 1.5 8.6-7.7-4.1-7.7 4.1zm1.7-0.6l-1.1 6.2 5.6-2.9 5.6 2.9-1.1-6.2 4.6-4.4-6.3-0.9-2.8-5.7-2.8 5.7-6.2 0.9z"/>
	<text id="Created by Toli" style="transform: matrix(.8,0,0,.8,0,81.6)" >
		<tspan x="0" y="0" class="t1">Created by Toli
</tspan>
	</text>
	<text id="from the Noun Project" style="transform: matrix(.8,0,0,.8,0,85.6)" >
		<tspan x="0" y="0" class="t1">from the Noun Project
</tspan>
	</text>
</svg>