<?xml version="1.0" encoding="UTF-8"?>
<svg xmlns="http://www.w3.org/2000/svg" version="1.1" viewBox="0 0 500 500">
  <defs>
    <style>
      .cls-1 {
        fill: #e32d26;
      }

      .cls-2 {
        fill: #fff;
      }
    </style>
  </defs>
  <!-- Generator: Adobe Illustrator 28.7.2, SVG Export Plug-In . SVG Version: 1.2.0 Build 154)  -->
  <g>
    <g id="Layer_1">
      <g id="Round_icons">
        <g id="Social_Icon_with_Background">
          <path id="Background" class="cls-1" d="M22.3,255.9c0-126.3,102.3-228.6,228.6-228.6h0c126.2,0,228.6,102.3,228.6,228.6h0c0,126.3-102.3,228.6-228.6,228.6h0c-126.2,0-228.6-102.3-228.6-228.6Z"/>
        </g>
        <g id="Social_icon">
          <path id="Vector" class="cls-2" d="M253.1,341c-.8,0-79.9,0-99.6-5.3-10.9-2.8-19.5-11.2-22.5-22-7.1-40.2-7.1-81.4,0-121.7,3-10.9,11.6-19.4,22.5-22.3,19.7-5.2,98.8-5.3,99.6-5.3s79.9,0,99.6,5.3c11,2.9,19.5,11.4,22.5,22.3,7.1,40.2,7.1,81.4,0,121.7-3.1,10.8-11.6,19.2-22.5,22-19.6,5.2-98.8,5.3-99.6,5.3ZM227,215.6h0v74.7l66.6-37.3-66.6-37.3Z"/>
        </g>
      </g>
    </g>
  </g>
</svg>